# xmcd
#
# Track frame offsets:
#	150
#	25275
#	49285
#	92365
#	114050
#	129640
#	157575
#	183640
#	205520
#
# Disc length: 2988 seconds
#
# Revision: 1
# Processed by: cddbd v1.5.1PL2 Copyright (c) Steve Scherf et al.
# Submitted via: EasyCDDAExtractor 8.0.2.1
#
DISCID=650baa09
DTITLE=Saxon - Hammersmith London 25-10-81
DYEAR=1981
DGENRE=Hard Rock
TTITLE0=Judgement Day
TTITLE1=See The Light Shining
TTITLE2=Wheels Of Steel
TTITLE3=747 (Strangers In The Night)
TTITLE4=Stallions Of The Highway
TTITLE5=Dallas 1PM
TTITLE6=Hungry Years
TTITLE7=Strong Arm Of The Law
TTITLE8=Heavy Metal Thunder
EXTD=
EXTT0=
EXTT1=
EXTT2=
EXTT3=
EXTT4=
EXTT5=
EXTT6=
EXTT7=
EXTT8=
PLAYORDER=
